# xmcd CD database file
#
# Track frame offsets:
#	150
#	12309
#	23001
#	32651
#	46189
#	57221
#	67412
#	80515
#	90521
#	99575
#	110388
#	120926
#	134246
#
# Disc length: 2072 seconds
#
# Revision: 0
# Processed by: cddbd v1.5.2PL0 Copyright (c) Steve Scherf et al.
# Submitted via: CDex 1.51
#
DISCID=a708160d
DTITLE=The Derailers - Under The Influence Of Buck
DYEAR=2007
DGENRE=Country
TTITLE0=Foolin' Around
TTITLE1=Under The Influence Of Love
TTITLE2=Love's Gonna Live Here
TTITLE3=Together Again
TTITLE4=My Heart Skips A Beat
TTITLE5=I've Got A Tiger By The Tail
TTITLE6=Cryin' Time
TTITLE7=Before You Go
TTITLE8=Sam's Place
TTITLE9=Who's Gonna Mow Your Grass
TTITLE10=Down On The Corner Of Love
TTITLE11=Johnny B. Goode
TTITLE12=The Derailers - Big In Vegas
EXTD=YEAR: 2007
EXTT0=
EXTT1=
EXTT2=
EXTT3=
EXTT4=
EXTT5=
EXTT6=
EXTT7=
EXTT8=
EXTT9=
EXTT10=
EXTT11=
EXTT12=
PLAYORDER=
